<svg width="20" height="15" viewBox="0 0 20 15" fill="none" xmlns="http://www.w3.org/2000/svg">
<path d="M17.5 0H7.50002C6.23403 0 4.66602 0.807 3.93002 1.837L1.32002 5.49L0.121025 7.169C2.4952e-05 7.344 -0.000975028 7.661 0.124025 7.833L1.31202 9.497L3.93103 13.164C4.66603 14.193 6.23302 15 7.50002 15H17.5C18.879 15 20 13.878 20 12.5V2.5C20 1.122 18.879 0 17.5 0ZM15.207 9.793C15.598 10.184 15.598 10.816 15.207 11.207C15.012 11.402 14.756 11.5 14.5 11.5C14.244 11.5 13.988 11.402 13.793 11.207L11.5 8.914L9.20702 11.207C9.01202 11.402 8.75602 11.5 8.50002 11.5C8.24403 11.5 7.98803 11.402 7.79303 11.207C7.40203 10.816 7.40203 10.184 7.79303 9.793L10.086 7.5L7.79303 5.207C7.40203 4.816 7.40203 4.184 7.79303 3.793C8.18402 3.402 8.81602 3.402 9.20702 3.793L11.5 6.086L13.793 3.793C14.184 3.402 14.816 3.402 15.207 3.793C15.598 4.184 15.598 4.816 15.207 5.207L12.914 7.5L15.207 9.793Z" fill="#4B5563"/>
</svg>
