<svg width="18" height="18" viewBox="0 0 18 18" fill="none" xmlns="http://www.w3.org/2000/svg">
  <path
    d="M13.1666 2.5H16.5C16.721 2.5 16.9329 2.5878 17.0892 2.74408C17.2455 2.90036 17.3333 3.11232 17.3333 3.33334V16.6667C17.3333 16.8877 17.2455 17.0996 17.0892 17.2559C16.9329 17.4122 16.721 17.5 16.5 17.5H1.49996C1.27895 17.5 1.06698 17.4122 0.910704 17.2559C0.754423 17.0996 0.666626 16.8877 0.666626 16.6667V3.33334C0.666626 3.11232 0.754423 2.90036 0.910704 2.74408C1.06698 2.5878 1.27895 2.5 1.49996 2.5H4.83329V0.833336H6.49996V2.5H11.5V0.833336H13.1666V2.5ZM2.33329 7.5V15.8333H15.6666V7.5H2.33329ZM3.99996 10.8333H8.16663V14.1667H3.99996V10.8333Z"
    fill="#4B5563" />
</svg>